<?xml version="1.0" encoding="UTF-8" standalone="no"?><svg xmlns="http://www.w3.org/2000/svg" xmlns:xlink= "http://www.w3.org/1999/xlink" width="823.0452674897118" height="534.9794238683128" aria-label="A chart." style="overflow: hidden;"><defs id="_ABSTRACT_RENDERER_ID_1116"><clipPath id="_ABSTRACT_RENDERER_ID_1117"><rect x="157" y="102" width="509" height="331"></rect></clipPath><filter id="_ABSTRACT_RENDERER_ID_1118"><feGaussianBlur in="SourceAlpha" stdDeviation="2"></feGaussianBlur><feOffset dx="1" dy="1"></feOffset><feComponentTransfer><feFuncA type="linear" slope="0.1"></feFuncA></feComponentTransfer><feMerge><feMergeNode></feMergeNode><feMergeNode in="SourceGraphic"></feMergeNode></feMerge></filter></defs><rect x="0" y="0" width="823.0452674897118" height="534.9794238683128" stroke="none" stroke-width="0" fill="#ffffff"></rect><g><text text-anchor="start" x="157" y="76.9" font-family="Arial" font-size="14" font-weight="bold" stroke="none" stroke-width="0" fill="#000000">Comparison of CNN &amp; ViT for Detection of AI Generated Images</text><rect x="157" y="65" width="509" height="14" stroke="none" stroke-width="0" fill-opacity="0" fill="#ffffff"></rect></g><g><rect x="680" y="102" width="129.04526748971182" height="178" stroke="none" stroke-width="0" fill-opacity="0" fill="#ffffff"></rect><g><rect x="680" y="102" width="129.04526748971182" height="14" stroke="none" stroke-width="0" fill-opacity="0" fill="#ffffff"></rect><g><text text-anchor="start" x="713" y="113.9" font-family="Arial" font-size="14" stroke="none" stroke-width="0" fill="#222222">CNN</text></g><path d="M680,109L708,109" stroke="none" stroke-width="0" fill-opacity="1" fill="none"></path><circle cx="694" cy="109" r="4.5" stroke="none" stroke-width="0" fill="#3366cc"></circle></g><g><rect x="680" y="125" width="129.04526748971182" height="14" stroke="none" stroke-width="0" fill-opacity="0" fill="#ffffff"></rect><g><text text-anchor="start" x="713" y="136.9" font-family="Arial" font-size="14" stroke="none" stroke-width="0" fill="#222222">ViT</text></g><path d="M680,132L708,132" stroke="none" stroke-width="0" fill-opacity="1" fill="none"></path><circle cx="694" cy="132" r="4.5" stroke="none" stroke-width="0" fill="#dc3912"></circle></g><g><rect x="680" y="148" width="129.04526748971182" height="14" stroke="none" stroke-width="0" fill-opacity="0" fill="#ffffff"></rect><g><text text-anchor="start" x="713" y="159.9" font-family="Arial" font-size="14" stroke="none" stroke-width="0" fill="#222222">EfficientNetB5</text></g><path d="M680,155L708,155" stroke="none" stroke-width="0" fill-opacity="1" fill="none"></path><circle cx="694" cy="155" r="4.5" stroke="none" stroke-width="0" fill="#000000"></circle></g><g><rect x="680" y="171" width="129.04526748971182" height="14" stroke="none" stroke-width="0" fill-opacity="0" fill="#ffffff"></rect><g><text text-anchor="start" x="713" y="182.9" font-family="Arial" font-size="14" stroke="none" stroke-width="0" fill="#222222">Dima806</text></g><path d="M680,178L708,178" stroke="none" stroke-width="0" fill-opacity="1" fill="none"></path><circle cx="694" cy="178" r="4.5" stroke="none" stroke-width="0" fill="#000000"></circle></g><g column-id="_trendline"><rect x="680" y="194" width="129.04526748971182" height="86" stroke="none" stroke-width="0" fill-opacity="0" fill="#ffffff"></rect><g><text text-anchor="start" x="713" y="205.9" font-family="Arial" font-size="14" stroke="none" stroke-width="0" fill="#222222">Dima806 = 0 *</text><text text-anchor="start" x="713" y="223.9" font-family="Arial" font-size="14" stroke="none" stroke-width="0" fill="#222222">Number Of</text><text text-anchor="start" x="713" y="241.9" font-family="Arial" font-size="14" stroke="none" stroke-width="0" fill="#222222">Parameters in</text><text text-anchor="start" x="713" y="259.9" font-family="Arial" font-size="14" stroke="none" stroke-width="0" fill="#222222">Millions +</text><text text-anchor="start" x="713" y="277.9" font-family="Arial" font-size="14" stroke="none" stroke-width="0" fill="#222222">0.984</text></g><path d="M680,201L708,201" stroke="#000000" stroke-width="2" stroke-opacity="0.5" fill-opacity="1" fill="none"></path></g></g><g><rect x="157" y="102" width="509" height="331" stroke="none" stroke-width="0" fill-opacity="0" fill="#ffffff"></rect><g clip-path="url(https://www.rapidtables.com/tools/scatter-plot.html#_ABSTRACT_RENDERER_ID_1117)"><g><rect x="157" y="102" width="1" height="331" stroke="none" stroke-width="0" fill="#cccccc"></rect><rect x="259" y="102" width="1" height="331" stroke="none" stroke-width="0" fill="#cccccc"></rect><rect x="360" y="102" width="1" height="331" stroke="none" stroke-width="0" fill="#cccccc"></rect><rect x="462" y="102" width="1" height="331" stroke="none" stroke-width="0" fill="#cccccc"></rect><rect x="563" y="102" width="1" height="331" stroke="none" stroke-width="0" fill="#cccccc"></rect><rect x="665" y="102" width="1" height="331" stroke="none" stroke-width="0" fill="#cccccc"></rect><rect x="208" y="102" width="1" height="331" stroke="none" stroke-width="0" fill="#ebebeb"></rect><rect x="309" y="102" width="1" height="331" stroke="none" stroke-width="0" fill="#ebebeb"></rect><rect x="411" y="102" width="1" height="331" stroke="none" stroke-width="0" fill="#ebebeb"></rect><rect x="513" y="102" width="1" height="331" stroke="none" stroke-width="0" fill="#ebebeb"></rect><rect x="614" y="102" width="1" height="331" stroke="none" stroke-width="0" fill="#ebebeb"></rect><rect x="157" y="432" width="509" height="1" stroke="none" stroke-width="0" fill="#cccccc"></rect><rect x="157" y="366" width="509" height="1" stroke="none" stroke-width="0" fill="#cccccc"></rect><rect x="157" y="300" width="509" height="1" stroke="none" stroke-width="0" fill="#cccccc"></rect><rect x="157" y="234" width="509" height="1" stroke="none" stroke-width="0" fill="#cccccc"></rect><rect x="157" y="168" width="509" height="1" stroke="none" stroke-width="0" fill="#cccccc"></rect><rect x="157" y="102" width="509" height="1" stroke="none" stroke-width="0" fill="#cccccc"></rect><rect x="157" y="399" width="509" height="1" stroke="none" stroke-width="0" fill="#ebebeb"></rect><rect x="157" y="333" width="509" height="1" stroke="none" stroke-width="0" fill="#ebebeb"></rect><rect x="157" y="267" width="509" height="1" stroke="none" stroke-width="0" fill="#ebebeb"></rect><rect x="157" y="201" width="509" height="1" stroke="none" stroke-width="0" fill="#ebebeb"></rect><rect x="157" y="135" width="509" height="1" stroke="none" stroke-width="0" fill="#ebebeb"></rect></g><g><rect x="157" y="102" width="1" height="331" stroke="none" stroke-width="0" fill="#333333"></rect><rect x="157" y="432" width="509" height="1" stroke="none" stroke-width="0" fill="#333333"></rect></g><g><path d="M157.5,107.87900000000002L162.56818604651187,107.87900000000002L167.63637209302172,107.87900000000002L172.70455813953512,107.87900000000002L177.77274418604853,107.87900000000002L182.84093023255684,107.87900000000002L187.90911627907025,107.87900000000002L192.97730232558365,107.87900000000002L198.04548837209197,107.87900000000002L203.11367441860537,107.87900000000002L208.18186046511875,107.87900000000002L213.250046511622,107.87900000000002L218.3182325581608,107.87900000000002L223.38641860464878,107.87900000000002L228.4546046511876,107.87900000000002L233.5227906976756,107.87900000000002L238.59097674416358,107.87900000000002L243.6591627907024,107.87900000000002L248.7273488371904,107.87900000000002L253.7955348837292,107.87900000000002L258.8637209302172,107.87900000000002L263.931906976756,107.87900000000002L269.000093023244,107.87900000000002L274.06827906978276,107.87900000000002L279.1364651162708,107.87900000000002L284.2046511628096,107.87900000000002L289.27283720929756,107.87900000000002L294.3410232558364,107.87900000000002L299.40920930232437,107.87900000000002L304.47739534881237,107.87900000000002L309.5455813953512,107.87900000000002L314.6137674418392,107.87900000000002L319.681953488378,107.87900000000002L324.750139534866,107.87900000000002L329.8183255814048,107.87900000000002L334.8865116278928,107.87900000000002L339.9546976744316,107.87900000000002L345.0228837209196,107.87900000000002L350.0910697674584,107.87900000000002L355.1592558139464,107.87900000000002L360.2274418604852,107.87900000000002L365.2956279069732,107.87900000000002L370.363813953512,107.87900000000002L375.432,107.87900000000002L380.500186046488,107.87900000000002L385.5683720930268,107.87900000000002L390.6365581395148,107.87900000000002L395.7047441860536,107.87900000000002L400.7729302325416,107.87900000000002L405.84111627908044,107.87900000000002L410.90930232556843,107.87900000000002L415.9774883721072,107.87900000000002L421.0456744185952,107.87900000000002L426.113860465134,107.87900000000002L431.18204651162205,107.87900000000002L436.2502325581608,107.87900000000002L441.3184186046488,107.87900000000002L446.3866046511876,107.87900000000002L451.4547906976756,107.87900000000002L456.5229767441636,107.87900000000002L461.5911627907024,107.87900000000002L466.6593488371904,107.87900000000002L471.7275348837292,107.87900000000002L476.7957209302172,107.87900000000002L481.863906976756,107.87900000000002L486.932093023244,107.87900000000002L492.00027906978283,107.87900000000002L497.06846511627083,107.87900000000002L502.13665116280964,107.87900000000002L507.20483720929764,107.87900000000002L512.2730232558364,107.87900000000002L517.3412093023244,107.87900000000002L522.4093953488124,107.87900000000002L527.4775813953512,107.87900000000002L532.5457674418392,107.87900000000002L537.613953488378,107.87900000000002L542.682139534866,107.87900000000002L547.7503255814048,107.87900000000002L552.8185116278928,107.87900000000002L557.8866976744316,107.87900000000002L562.9548837209196,107.87900000000002L568.0230697674583,107.87900000000002L573.0912558139464,107.87900000000002L578.1594418604852,107.87900000000002L583.2276279069731,107.87900000000002L588.2958139535119,107.87900000000002L593.364,107.87900000000002" stroke="#000000" stroke-width="2" stroke-opacity="0.5" fill-opacity="1" fill="none"></path></g></g><g><circle cx="170.74636924" cy="124.41199999999998" r="4.5" stroke="none" stroke-width="0" fill="#3366cc"></circle><circle cx="174.07462268" cy="114.149" r="4.5" stroke="none" stroke-width="0" fill="#3366cc"></circle><circle cx="233.01205116" cy="113.81900000000002" r="4.5" stroke="none" stroke-width="0" fill="#3366cc"></circle><circle cx="249.73508096" cy="111.245" r="4.5" stroke="none" stroke-width="0" fill="#3366cc"></circle><circle cx="271.04832764" cy="114.67700000000002" r="4.5" stroke="none" stroke-width="0" fill="#3366cc"></circle><circle cx="368.70583616" cy="114.743" r="4.5" stroke="none" stroke-width="0" fill="#3366cc"></circle><circle cx="376.83310972000004" cy="118.505" r="4.5" stroke="none" stroke-width="0" fill="#3366cc"></circle><circle cx="186.5576" cy="156.42199999999997" r="4.5" stroke="none" stroke-width="0" fill="#dc3912"></circle><circle cx="593.364" cy="211.565" r="4.5" stroke="none" stroke-width="0" fill="#dc3912"></circle><circle cx="593.364" cy="107.87900000000002" r="4.5" stroke="none" stroke-width="0" fill="#dc3912"></circle><circle cx="596.412" cy="249.35" r="4.5" stroke="none" stroke-width="0" fill="#dc3912"></circle><circle cx="597.428" cy="193.74499999999998" r="4.5" stroke="none" stroke-width="0" fill="#dc3912"></circle><circle cx="606.064" cy="189.45499999999998" r="4.5" stroke="none" stroke-width="0" fill="#dc3912"></circle><circle cx="305.13890208" cy="110.618" r="4.5" stroke="none" stroke-width="0" fill="#000000"></circle><circle cx="593.364" cy="107.87900000000002" r="4.5" stroke="none" stroke-width="0" fill="#000000"></circle></g><g><g><text text-anchor="middle" x="157.5" y="453.9" font-family="Arial" font-size="14" stroke="none" stroke-width="0" fill="#444444">0</text></g><g><text text-anchor="middle" x="259.1" y="453.9" font-family="Arial" font-size="14" stroke="none" stroke-width="0" fill="#444444">20</text></g><g><text text-anchor="middle" x="360.7" y="453.9" font-family="Arial" font-size="14" stroke="none" stroke-width="0" fill="#444444">40</text></g><g><text text-anchor="middle" x="462.3" y="453.9" font-family="Arial" font-size="14" stroke="none" stroke-width="0" fill="#444444">60</text></g><g><text text-anchor="middle" x="563.9" y="453.9" font-family="Arial" font-size="14" stroke="none" stroke-width="0" fill="#444444">80</text></g><g><text text-anchor="middle" x="665.5" y="453.9" font-family="Arial" font-size="14" stroke="none" stroke-width="0" fill="#444444">100</text></g><g><text text-anchor="end" x="143" y="437.4" font-family="Arial" font-size="14" stroke="none" stroke-width="0" fill="#444444">0</text></g><g><text text-anchor="end" x="143" y="371.4" font-family="Arial" font-size="14" stroke="none" stroke-width="0" fill="#444444">0.2</text></g><g><text text-anchor="end" x="143" y="305.4" font-family="Arial" font-size="14" stroke="none" stroke-width="0" fill="#444444">0.4</text></g><g><text text-anchor="end" x="143" y="239.4" font-family="Arial" font-size="14" stroke="none" stroke-width="0" fill="#444444">0.6</text></g><g><text text-anchor="end" x="143" y="173.4" font-family="Arial" font-size="14" stroke="none" stroke-width="0" fill="#444444">0.8</text></g><g><text text-anchor="end" x="143" y="107.4" font-family="Arial" font-size="14" stroke="none" stroke-width="0" fill="#444444">1</text></g></g></g><g><g><text text-anchor="middle" x="411.5" y="500.38971193415637" font-family="Arial" font-size="14" font-style="italic" stroke="none" stroke-width="0" fill="#222222">Number Of Parameters in Millions</text><rect x="157" y="488.4897119341564" width="509" height="14" stroke="none" stroke-width="0" fill-opacity="0" fill="#ffffff"></rect></g><g><text text-anchor="middle" x="66.9" y="267.5" font-family="Arial" font-size="14" font-style="italic" transform="rotate(-90 66.9 267.5)" stroke="none" stroke-width="0" fill="#222222">Accuracy in Decimal</text><path d="M54.999999999999986,433L55.00000000000001,102L69.00000000000001,102L68.99999999999999,433Z" stroke="none" stroke-width="0" fill-opacity="0" fill="#ffffff"></path></g></g><g></g></svg>